<svg width="31" height="30" viewBox="0 0 31 30" fill="none" xmlns="http://www.w3.org/2000/svg">
<path d="M28.8447 0H2.15526C1.24109 0 0.5 0.741085 0.5 1.65526V28.3447C0.5 29.2589 1.24109 30 2.15526 30H28.8447C29.7589 30 30.5 29.2589 30.5 28.3447V1.65526C30.5 0.741085 29.7589 0 28.8447 0Z" fill="#3D5A98"/>
<path d="M21.1973 29.9974V18.3802H25.0959L25.6789 13.8529H21.1973V10.9632C21.1973 9.65269 21.5623 8.75788 23.4406 8.75788H25.8386V4.70212C24.6774 4.5811 23.5105 4.52356 22.343 4.52975C18.8906 4.52975 16.5129 6.63368 16.5129 10.5145V13.8529H12.6143V18.3802H16.5129V29.9974H21.1973Z" fill="white"/>
</svg>
