<svg width="28" height="28" viewBox="0 0 28 28" fill="none" xmlns="http://www.w3.org/2000/svg">
<path d="M11.7008 18.0169C10.5546 18.0169 9.57909 17.6221 8.77441 16.8326C7.96972 16.0425 7.56738 15.0764 7.56738 13.9342C7.56738 12.793 7.96972 11.8249 8.77441 11.0298C9.57909 10.2352 10.5546 9.83789 11.7008 9.83789H18.3073C19.1079 9.83789 19.7882 10.1134 20.3482 10.6643C20.9082 11.2152 21.1885 11.8907 21.189 12.6909C21.189 13.491 20.909 14.1665 20.349 14.7175C19.7885 15.2674 19.1079 15.5423 18.3073 15.5423H12.0497C11.6057 15.5423 11.223 15.3874 10.9017 15.0777C10.5803 14.7679 10.4196 14.39 10.4196 13.9441C10.4196 13.4981 10.5778 13.1146 10.8941 12.7938C11.2099 12.4729 11.5951 12.3125 12.0497 12.3125H18.3368V13.0692H12.0497C11.808 13.0692 11.6022 13.152 11.4321 13.3175C11.2616 13.4824 11.1764 13.6857 11.1764 13.9274C11.1764 14.1696 11.2616 14.3731 11.4321 14.5381C11.6022 14.7036 11.808 14.7863 12.0497 14.7863H18.3224C18.9102 14.7833 19.4086 14.5812 19.8178 14.1802C20.2274 13.7786 20.4322 13.2821 20.4322 12.6909C20.4322 12.1041 20.2252 11.6079 19.811 11.2023C19.3968 10.7972 18.8955 10.5946 18.3073 10.5946H11.7008C10.7664 10.5921 9.97009 10.9158 9.31171 11.5656C8.65333 12.2159 8.32414 13.0074 8.32414 13.9403C8.32414 14.86 8.65333 15.642 9.31171 16.2862C9.97009 16.93 10.7664 17.2546 11.7008 17.2602H18.3368V18.0169H11.7008Z" fill="black" fill-opacity="0.5"/>
<rect x="0.5" y="0.5" width="27" height="27" stroke="black" stroke-opacity="0.5"/>
</svg>
