<svg width="76" height="100" viewBox="0 0 76 100" fill="none" xmlns="http://www.w3.org/2000/svg">
<path opacity="0.7" d="M61.4375 35V25C61.4375 11 51.125 0 38 0C24.875 0 14.5625 11 14.5625 25V35C6.59375 35 0.5 41.5 0.5 50V85C0.5 93.5 6.59375 100 14.5625 100H61.4375C69.4062 100 75.5 93.5 75.5 85V50C75.5 41.5 69.4062 35 61.4375 35ZM23.9375 25C23.9375 16.5 30.0312 10 38 10C45.9688 10 52.0625 16.5 52.0625 25V35H23.9375V25ZM43.1562 67.5L42.6875 68V75C42.6875 78 40.8125 80 38 80C35.1875 80 33.3125 78 33.3125 75V68C30.5 65 30.0312 60.5 32.8437 57.5C35.6562 54.5 39.875 54 42.6875 57C45.5 59.5 45.9688 64.5 43.1562 67.5Z" fill="#FCF5E8"/>
</svg>
