<svg width="84" height="96" viewBox="0 0 84 96" fill="none" xmlns="http://www.w3.org/2000/svg">
<path d="M1.2808 88.5133L25.576 61.8919L5.19741 39.8794C4.40669 38.9597 4.40669 37.9133 5.23598 37.2437L37.4415 9.53474C39.4006 7.85974 40.4919 7.02402 41.9994 7.02402C43.5422 7.02402 44.5612 7.85974 46.5572 9.53474L78.7997 37.2419C79.592 37.9115 79.629 38.999 78.7997 39.8776L58.5722 61.8937L82.7179 88.4294C83.3206 87.2562 83.5858 85.2472 83.5858 82.4026V39.9633C83.5858 35.5276 82.906 33.308 80.1176 30.7562L49.7956 4.59724C46.9735 2.16867 44.7878 0.624023 41.9994 0.624023C39.2495 0.624023 37.0654 2.17224 34.2401 4.59902L3.84259 30.7562C1.1683 33.2669 0.414551 35.5276 0.414551 39.9633V82.4026C0.414551 85.3312 0.715087 87.3401 1.2808 88.5133ZM11.1117 95.3758H71.7572C75.4858 95.3758 78.0845 94.6222 79.5165 93.1169L46.7083 57.1222C45.0883 55.283 43.6563 54.4865 42.0749 54.4865C40.5304 54.4865 39.0615 55.2812 37.4415 57.1222L4.48223 93.3258C5.72616 94.7062 7.94723 95.3758 11.1117 95.3758Z" fill="#FCF5E8"/>
</svg>
