<svg width="36" height="36" viewBox="0 0 36 36" fill="none" xmlns="http://www.w3.org/2000/svg">
<path d="M18.0299 4.36505C13.0649 4.36505 9.02989 8.40005 9.02989 13.3651V17.7001C9.02989 18.6151 8.63989 20.0101 8.17489 20.7901L6.44989 23.6551C5.38489 25.4251 6.11989 27.3901 8.06989 28.0501C14.5349 30.2101 21.5099 30.2101 27.9749 28.0501C29.7899 27.4501 30.5849 25.3051 29.5949 23.6551L27.8699 20.7901C27.4199 20.0101 27.0299 18.6151 27.0299 17.7001V13.3651C27.0299 8.41505 22.9799 4.36505 18.0299 4.36505Z" stroke="#292D32" stroke-width="1.5" stroke-miterlimit="10" stroke-linecap="round"/>
<path d="M20.8049 4.79991C20.3399 4.66491 19.8599 4.55991 19.3649 4.49991C17.9249 4.31991 16.5449 4.42491 15.2549 4.79991C15.6899 3.68991 16.7699 2.90991 18.0299 2.90991C19.2899 2.90991 20.3699 3.68991 20.8049 4.79991Z" stroke="#292D32" stroke-width="1.5" stroke-miterlimit="10" stroke-linecap="round" stroke-linejoin="round"/>
<path d="M22.5293 28.5901C22.5293 31.0651 20.5043 33.0901 18.0293 33.0901C16.7993 33.0901 15.6593 32.5801 14.8493 31.7701C14.0393 30.9601 13.5293 29.8201 13.5293 28.5901" stroke="#292D32" stroke-width="1.5" stroke-miterlimit="10"/>
</svg>
