<svg width="30" height="30" viewBox="0 0 30 30" fill="none" xmlns="http://www.w3.org/2000/svg">
<path d="M25.5918 30C24.3682 30 23.3265 29.6158 22.4665 28.8474C21.6065 28.0811 21.1765 27.1495 21.1765 26.0526C21.1765 25.8421 21.1971 25.6247 21.2382 25.4005C21.2782 25.1753 21.3388 24.9637 21.42 24.7658L7.75765 17.5626C7.32588 17.9984 6.82353 18.3379 6.25059 18.5811C5.67882 18.8253 5.06588 18.9474 4.41176 18.9474C3.18588 18.9474 2.14471 18.5642 1.28824 17.7979C0.429412 17.0305 0 16.0989 0 15.0032C0 13.9084 0.429412 12.9763 1.28824 12.2068C2.14353 11.4374 3.18471 11.0526 4.41176 11.0526C5.06588 11.0526 5.67882 11.1747 6.25059 11.4189C6.82353 11.6621 7.32588 12.0016 7.75765 12.4374L21.42 5.23421C21.3388 5.03632 21.2782 4.82474 21.2382 4.59947C21.1971 4.37526 21.1765 4.1579 21.1765 3.94737C21.1765 2.85053 21.6053 1.91895 22.4629 1.15263C23.3194 0.384211 24.36 0 25.5847 0C26.8082 0 27.85 0.383684 28.71 1.15105C29.57 1.91737 30 2.84842 30 3.94421C30 5.03895 29.5706 5.97105 28.7118 6.74053C27.8553 7.51 26.8141 7.89474 25.5882 7.89474C24.9341 7.89474 24.3212 7.77263 23.7494 7.52842C23.1765 7.28526 22.6741 6.94579 22.2424 6.51L8.58 13.7132C8.66118 13.9111 8.72177 14.1216 8.76177 14.3447C8.80294 14.5689 8.82353 14.7853 8.82353 14.9937C8.82353 15.2021 8.80294 15.4205 8.76177 15.6489C8.72177 15.8763 8.66118 16.0889 8.58 16.2868L22.2424 23.49C22.6741 23.0542 23.1765 22.7147 23.7494 22.4716C24.3212 22.2274 24.9341 22.1053 25.5882 22.1053C26.8141 22.1053 27.8553 22.4889 28.7118 23.2563C29.5706 24.0226 30 24.9537 30 26.0495C30 27.1442 29.5718 28.0763 28.7153 28.8458C27.8576 29.6153 26.8165 30 25.5918 30ZM25.5882 6.31579C26.3141 6.31579 26.9371 6.08368 27.4571 5.61947C27.9759 5.15421 28.2353 4.59684 28.2353 3.94737C28.2353 3.29789 27.9759 2.74053 27.4571 2.27526C26.9371 1.81105 26.3141 1.57895 25.5882 1.57895C24.8624 1.57895 24.2394 1.81105 23.7194 2.27526C23.2006 2.74053 22.9412 3.29789 22.9412 3.94737C22.9412 4.59684 23.2006 5.15421 23.7194 5.61947C24.2394 6.08368 24.8624 6.31579 25.5882 6.31579ZM4.41176 17.3684C5.13765 17.3684 5.76059 17.1363 6.28059 16.6721C6.79941 16.2068 7.05882 15.6495 7.05882 15C7.05882 14.3505 6.79941 13.7932 6.28059 13.3279C5.76059 12.8637 5.13765 12.6316 4.41176 12.6316C3.68588 12.6316 3.06294 12.8637 2.54294 13.3279C2.02412 13.7932 1.76471 14.3505 1.76471 15C1.76471 15.6495 2.02412 16.2068 2.54294 16.6721C3.06294 17.1363 3.68588 17.3684 4.41176 17.3684ZM25.5882 28.4211C26.3141 28.4211 26.9371 28.1889 27.4571 27.7247C27.9759 27.2595 28.2353 26.7021 28.2353 26.0526C28.2353 25.4032 27.9759 24.8458 27.4571 24.3805C26.9371 23.9163 26.3141 23.6842 25.5882 23.6842C24.8624 23.6842 24.2394 23.9163 23.7194 24.3805C23.2006 24.8458 22.9412 25.4032 22.9412 26.0526C22.9412 26.7021 23.2006 27.2595 23.7194 27.7247C24.2394 28.1889 24.8624 28.4211 25.5882 28.4211Z" fill="#FEFCF8"/>
</svg>
