<svg width="36" height="37" viewBox="0 0 36 37" fill="none" xmlns="http://www.w3.org/2000/svg">
<path d="M27.211 32.93C25.891 33.32 24.331 33.5 22.501 33.5H13.501C11.671 33.5 10.111 33.32 8.79102 32.93C9.12102 29.03 13.126 25.955 18.001 25.955C22.876 25.955 26.881 29.03 27.211 32.93Z" stroke="#292D32" stroke-width="1.5" stroke-linecap="round" stroke-linejoin="round"/>
<path d="M22.5 3.5H13.5C6 3.5 3 6.5 3 14V23C3 28.67 4.71 31.775 8.79 32.93C9.12 29.03 13.125 25.955 18 25.955C22.875 25.955 26.88 29.03 27.21 32.93C31.29 31.775 33 28.67 33 23V14C33 6.5 30 3.5 22.5 3.5ZM18 21.755C15.03 21.755 12.63 19.34 12.63 16.37C12.63 13.4 15.03 11 18 11C20.97 11 23.37 13.4 23.37 16.37C23.37 19.34 20.97 21.755 18 21.755Z" stroke="#292D32" stroke-width="1.5" stroke-linecap="round" stroke-linejoin="round"/>
<path d="M23.3699 16.37C23.3699 19.34 20.9699 21.755 17.9999 21.755C15.0299 21.755 12.6299 19.34 12.6299 16.37C12.6299 13.4 15.0299 11 17.9999 11C20.9699 11 23.3699 13.4 23.3699 16.37Z" stroke="#292D32" stroke-width="1.5" stroke-linecap="round" stroke-linejoin="round"/>
</svg>
