<svg width="22" height="19" viewBox="0 0 22 19" fill="none" xmlns="http://www.w3.org/2000/svg">
<path fill-rule="evenodd" clip-rule="evenodd" d="M14.0209 0.342967C14.5299 0.255967 15.0989 0.226967 15.6349 0.317967C16.5897 0.479236 17.4743 0.922597 18.1749 1.59097C18.6309 1.60097 19.0799 1.51097 19.4769 1.38297C19.8606 1.25784 20.2289 1.08977 20.5749 0.881967L20.5839 0.875967C20.7279 0.780021 20.9007 0.736821 21.0729 0.753688C21.2451 0.770555 21.4062 0.846451 21.5288 0.968512C21.6515 1.09057 21.7281 1.25129 21.7458 1.42342C21.7635 1.59555 21.7212 1.76851 21.6259 1.91297C21.4189 2.22797 21.1299 2.78997 20.8069 3.41997L20.6519 3.72097C20.4669 4.08097 20.2769 4.44497 20.0999 4.75697C19.9889 4.95297 19.8699 5.15197 19.7499 5.32397V5.59797C19.7622 7.23661 19.448 8.86128 18.8257 10.3772C18.2033 11.8931 17.2853 13.2699 16.1251 14.4271C14.9649 15.5844 13.5859 16.499 12.0684 17.1176C10.551 17.7362 8.92552 18.0463 7.28691 18.03C4.91236 18.0321 2.58777 17.348 0.592913 16.06C0.450327 15.9677 0.34326 15.8299 0.289226 15.6689C0.235192 15.5079 0.237389 15.3333 0.295459 15.1737C0.353529 15.0142 0.464033 14.879 0.608895 14.7904C0.753757 14.7018 0.924401 14.665 1.09291 14.686C2.47078 14.8507 3.86729 14.6284 5.12591 14.044C4.51184 13.7648 3.96264 13.3608 3.51328 12.8577C3.06392 12.3547 2.72426 11.7635 2.51591 11.122C2.47621 10.9991 2.46889 10.8682 2.49464 10.7417C2.52039 10.6152 2.57835 10.4975 2.66291 10.4L2.67291 10.39C2.1653 9.93772 1.75848 9.38377 1.47887 8.76408C1.19926 8.14438 1.05311 7.47281 1.04991 6.79297V6.74097C1.04984 6.57632 1.10395 6.41622 1.20389 6.28538C1.30383 6.15454 1.44405 6.06021 1.60291 6.01697C1.26429 5.34131 1.0886 4.59573 1.08991 3.83997C1.08934 2.98314 1.31346 2.14114 1.73991 1.39797C1.8005 1.29247 1.88584 1.20329 1.98858 1.13813C2.09131 1.07297 2.20835 1.03378 2.32961 1.02394C2.45087 1.01409 2.5727 1.0339 2.6846 1.08164C2.7965 1.12938 2.8951 1.20362 2.97191 1.29797C4.7211 3.4529 7.2271 4.85863 9.97791 5.22797C9.95403 4.32815 10.181 3.43944 10.6335 2.6613C11.086 1.88316 11.7461 1.24629 12.5399 0.821967C12.9419 0.607967 13.4739 0.436967 14.0219 0.342967H14.0209ZM2.74291 7.89097C2.9371 8.43748 3.26985 8.92423 3.7086 9.30355C4.14735 9.68288 4.67707 9.9418 5.24591 10.055C5.4098 10.0876 5.55809 10.1741 5.66725 10.3006C5.77641 10.4271 5.84019 10.5865 5.84846 10.7534C5.85673 10.9203 5.80902 11.0852 5.7129 11.2219C5.61679 11.3586 5.47777 11.4593 5.31791 11.508C5.04591 11.591 4.76691 11.648 4.48391 11.681C4.79116 12.0773 5.18327 12.3998 5.63146 12.6247C6.07965 12.8497 6.57253 12.9714 7.07391 12.981C7.22857 12.9839 7.37854 13.0345 7.50328 13.126C7.62802 13.2175 7.72143 13.3453 7.7707 13.4919C7.81998 13.6385 7.82272 13.7968 7.77853 13.945C7.73435 14.0933 7.64542 14.2242 7.52391 14.32C6.48116 15.1404 5.26938 15.7193 3.97591 16.015C5.04678 16.3577 6.16453 16.5315 7.28891 16.53H7.29791C8.73792 16.5452 10.1665 16.2732 11.5002 15.73C12.834 15.1868 14.0461 14.3833 15.0657 13.3663C16.0854 12.3494 16.8921 11.1394 17.4388 9.80716C17.9856 8.47489 18.2613 7.04701 18.2499 5.60697V5.07197C18.2498 4.88986 18.3159 4.71391 18.4359 4.57697C18.5059 4.49797 18.6259 4.31597 18.7959 4.01697C18.9559 3.73497 19.1339 3.39497 19.3189 3.03597L19.3519 2.96997C18.8295 3.08752 18.2917 3.12027 17.7589 3.06697C17.5788 3.04734 17.4118 2.96315 17.2889 2.82997C16.786 2.28465 16.1163 1.92167 15.3849 1.79797C15.016 1.74578 14.6411 1.75423 14.2749 1.82297C13.918 1.87852 13.5715 1.98741 13.2469 2.14597C12.5926 2.49557 12.0728 3.05249 11.7691 3.72936C11.4654 4.40623 11.395 5.16476 11.5689 5.88597C11.5963 5.99937 11.5968 6.1176 11.5705 6.23125C11.5441 6.3449 11.4917 6.45085 11.4172 6.54065C11.3427 6.63046 11.2483 6.70165 11.1415 6.74858C11.0347 6.79551 10.9184 6.81687 10.8019 6.81097C7.7295 6.65556 4.82477 5.36271 2.65291 3.18397C2.61072 3.40041 2.58962 3.62045 2.58991 3.84097V3.84297C2.58879 4.39371 2.72387 4.93619 2.98314 5.4221C3.24241 5.908 3.61781 6.32225 4.07591 6.62797C4.21044 6.71851 4.312 6.85022 4.36536 7.00334C4.41873 7.15647 4.42103 7.32277 4.37192 7.47731C4.32281 7.63185 4.22493 7.76632 4.09296 7.86055C3.96099 7.95477 3.80203 8.00369 3.63991 7.99997C3.33812 7.9916 3.03779 7.95577 2.74291 7.89097Z" fill="white"/>
</svg>
