<svg width="17" height="12" viewBox="0 0 17 12" fill="none" xmlns="http://www.w3.org/2000/svg">
<path d="M11.3846 6C11.3846 6.73671 11.0807 7.44325 10.5397 7.96419C9.99876 8.48512 9.26505 8.77778 8.5 8.77778M5.61538 6C5.61538 5.26329 5.9193 4.55675 6.46027 4.03581C7.00124 3.51488 7.73495 3.22222 8.5 3.22222M6.76923 10.8078C7.33677 10.9345 7.91739 10.999 8.5 11C12.6423 11 16 7.66667 16 6C16 5.25778 15.3337 4.18444 14.2283 3.22222M10.5192 1.26111C9.86094 1.08925 9.18205 1.00146 8.5 1C4.35769 1 1 4.33333 1 6C1 6.73333 1.65019 7.78889 2.73077 8.74167M3.30769 11L13.6923 1" stroke="#FCF5E8" stroke-width="1.5" stroke-linecap="round" stroke-linejoin="round"/>
</svg>
