<svg width="31" height="30" viewBox="0 0 31 30" fill="none" xmlns="http://www.w3.org/2000/svg">
<path d="M1.14023 14.8696C1.13953 17.3986 1.80328 19.8679 3.06539 22.0444L1.01953 29.4809L8.66391 27.4854C10.7782 28.6313 13.1472 29.2317 15.5545 29.2319H15.5609C23.5079 29.2319 29.977 22.794 29.9804 14.881C29.982 11.0465 28.4834 7.4409 25.7606 4.72821C23.0384 2.01575 19.4179 0.521159 15.5603 0.519409C7.61227 0.519409 1.14363 6.95697 1.14035 14.8696" fill="url(#paint0_linear_436_250)"/>
<path d="M0.625391 14.865C0.62457 17.4849 1.31211 20.0425 2.61922 22.297L0.5 30L8.41848 27.933C10.6003 29.1173 13.0568 29.7417 15.5564 29.7426H15.5628C23.795 29.7426 30.4965 23.0731 30.5 14.8769C30.5014 10.9047 28.9489 7.1694 26.1289 4.35953C23.3086 1.55001 19.5586 0.00163331 15.5628 0C7.32922 0 0.628672 6.66856 0.625391 14.865ZM5.34113 21.9087L5.04547 21.4415C3.80258 19.474 3.14656 17.2005 3.1475 14.8659C3.15008 8.05325 8.7193 2.51063 15.5675 2.51063C18.8839 2.51203 22.0006 3.79907 24.3448 6.13423C26.6889 8.46963 27.9788 11.5741 27.978 14.8759C27.975 21.6886 22.4056 27.2319 15.5628 27.2319H15.5579C13.3298 27.2307 11.1446 26.635 9.23891 25.5093L8.78539 25.2416L4.08641 26.4681L5.34113 21.9087Z" fill="url(#paint1_linear_436_250)"/>
<path d="M11.8293 8.65041C11.5497 8.03173 11.2554 8.01925 10.9895 8.0084C10.7718 7.99907 10.5229 7.99977 10.2742 7.99977C10.0253 7.99977 9.6209 8.09298 9.27906 8.46456C8.93687 8.83649 7.97266 9.73527 7.97266 11.5633C7.97266 13.3914 9.31012 15.1581 9.49656 15.4062C9.68324 15.6539 12.0786 19.5253 15.8721 21.0147C19.025 22.2524 19.6666 22.0062 20.3508 21.9441C21.0352 21.8823 22.5591 21.0456 22.87 20.1779C23.1811 19.3104 23.1811 18.5668 23.0879 18.4114C22.9946 18.2566 22.7457 18.1636 22.3724 17.9779C21.9991 17.792 20.1641 16.8931 19.8221 16.7691C19.4799 16.6452 19.2311 16.5834 18.9822 16.9554C18.7333 17.3269 18.0186 18.1636 17.8007 18.4114C17.5831 18.6598 17.3652 18.6907 16.9921 18.5048C16.6186 18.3184 15.4166 17.9265 13.9906 16.6608C12.8811 15.676 12.132 14.4597 11.9143 14.0877C11.6965 13.7162 11.8909 13.5149 12.0781 13.3297C12.2458 13.1632 12.4514 12.8958 12.6382 12.679C12.8243 12.462 12.8864 12.3071 13.0109 12.0594C13.1355 11.8113 13.0731 11.5943 12.98 11.4085C12.8864 11.2226 12.1612 9.38505 11.8293 8.65041Z" fill="white"/>
<defs>
<linearGradient id="paint0_linear_436_250" x1="1449.06" y1="2896.66" x2="1449.06" y2="0.519409" gradientUnits="userSpaceOnUse">
<stop stop-color="#1FAF38"/>
<stop offset="1" stop-color="#60D669"/>
</linearGradient>
<linearGradient id="paint1_linear_436_250" x1="1500.5" y1="3000" x2="1500.5" y2="0" gradientUnits="userSpaceOnUse">
<stop stop-color="#F9F9F9"/>
<stop offset="1" stop-color="white"/>
</linearGradient>
</defs>
</svg>
