<svg width="29" height="25" viewBox="0 0 29 25" fill="none" xmlns="http://www.w3.org/2000/svg">
<path d="M25.7806 11.9183C24.5631 11.2538 20.2991 9.87933 16.7514 8.85096L19.3266 6.20529L19.606 6.49327L20.2213 5.86154L19.9419 5.57308L21.7225 3.74279L21.3817 3.39183L23.1624 1.5625L21.6427 0L19.8617 1.82981L19.519 1.47885L17.7369 3.30865L17.0699 2.62404L12.9563 6.85577L13.4749 7.39086L16.965 3.80144L17.1178 3.94567L13.3502 7.81635C9.94992 6.26538 8.66135 7.9774 6.8996 10.3428C5.93535 11.637 4.73474 13.2486 2.86666 14.8178C2.25572 15.3298 1.6298 16.2115 1.70665 17.151C1.74435 17.6173 1.98409 18.2779 2.84539 18.8577L1.01162 22.2409L0 23.2822L0.500735 23.7971L1.51719 22.7534L3.87248 21.4087C4.31183 21.9918 4.98946 22.4058 5.68111 22.4736C7.34427 22.6389 8.75367 23.2548 10.1172 23.8505C11.469 24.4418 12.7455 25 14.0786 25C15.8365 25 17.2091 24.763 18.6615 24.5115C20.547 24.1861 22.6843 23.8173 26.2939 23.8173C27.6366 23.8173 28.5829 22.726 28.8904 20.825C29.4331 17.4808 27.8923 13.0692 25.7806 11.9183ZM11.6034 17.0091C11.1399 16.7966 10.6991 16.5952 10.3356 16.4625C10.309 16.4529 10.2796 16.4447 10.253 16.4351C10.4618 16.1096 10.8861 15.5582 11.7233 14.7793C11.66 15.7014 11.6218 16.5538 11.6034 17.0091ZM19.5195 2.34183L20.8834 3.74279L19.5224 5.14087L18.1584 3.7399L19.5195 2.34183ZM17.5421 4.37308L18.9061 5.77404L8.80394 16.1529C7.47718 16.0687 5.88411 16.4284 4.51289 17.7601L17.5421 4.37308ZM3.49741 15.5611C5.47183 13.9418 6.69032 12.2577 7.68502 10.9231C9.39795 8.62356 10.2931 7.28462 12.8296 8.35192L3.87344 17.5543C3.43022 17.2942 2.37994 16.4774 3.49741 15.5611ZM1.91642 21.8293L3.34661 19.1812L3.46986 19.3077C3.31551 19.8149 3.34302 20.3597 3.54767 20.849L1.91642 21.8293ZM28.2006 20.5394C28.0696 21.351 27.0846 22.4558 25.9715 22.4558C22.2774 22.4558 20.418 22.9971 18.4895 23.3077C14.7562 23.9082 11.9852 23.1442 10.7788 22.3793C7.7551 20.463 6.10645 21.4514 4.71686 20.3865C4.26978 20.0437 4.30989 19.2062 4.74731 18.6827C6.68065 16.374 9.19785 16.7611 10.0147 17.1466C12.3661 18.2572 14.5044 18.4207 15.0762 18.2966C15.6489 18.1803 16.1555 17.8707 16.5508 17.4827C16.1013 17.8111 15.5764 18.0274 15.0409 18.0558C14.5068 18.0928 12.9688 17.6154 12.7083 17.5043C12.6141 17.0442 12.4623 16.224 12.4483 15.6226C13.412 16.6 14.4715 16.8481 14.4715 16.8481L12.4101 14.1442C12.4101 14.1442 15.4261 10.8409 17.4329 9.82692C20.8114 10.8135 24.362 11.9202 25.3838 12.4779C27.1228 13.4255 28.6695 17.649 28.2006 20.5394Z" fill="black" fill-opacity="0.5"/>
</svg>
